<svg width="16" height="16" viewBox="0 0 16 16" fill="none" xmlns="http://www.w3.org/2000/svg">
<g clip-path="url(#clip0_113_194)">
<path d="M0.828849 16C0.61809 16 0.40733 15.9199 0.247201 15.7585C-0.0742624 15.4371 -0.0742624 14.9159 0.247201 14.5944L14.6006 0.241098C14.922 -0.0803659 15.4432 -0.0803659 15.7647 0.241098C16.0861 0.562561 16.0861 1.08373 15.7647 1.4054L1.4115 15.7585C1.25017 15.9189 1.03941 16 0.828849 16Z" fill="black"/>
<path d="M15.1832 16C14.9724 16 14.7619 15.9199 14.6016 15.7585L0.247201 1.4054C-0.0742624 1.08373 -0.0742624 0.562561 0.247201 0.241098C0.568665 -0.0803659 1.08984 -0.0803659 1.4115 0.241098L15.7647 14.5944C16.0861 14.9159 16.0861 15.4371 15.7647 15.7585C15.6033 15.9189 15.3928 16 15.1832 16Z" fill="black"/>
</g>
<defs>
<clipPath id="clip0_113_194">
<rect width="16" height="16" fill="white"/>
</clipPath>
</defs>
</svg>
