<svg width="29" height="29" viewBox="0 0 29 29" fill="none" xmlns="http://www.w3.org/2000/svg">
<g clip-path="url(#clip0_113_246)">
<path d="M14.5 9.44186C11.2205 9.44186 9.44186 12.1395 9.44186 14.5566C9.44186 17.5349 12.1395 19.5581 14.5 19.5581C17.5349 19.5581 19.5581 16.8605 19.5581 14.5566C19.5581 12.1395 17.7795 9.44186 14.5 9.44186ZM14.5 9.44186C11.2205 9.44186 9.44186 12.1395 9.44186 14.5566C9.44186 17.5349 12.1395 19.5581 14.5 19.5581C17.5349 19.5581 19.5581 16.8605 19.5581 14.5566C19.5581 12.1395 17.7795 9.44186 14.5 9.44186ZM24.752 0H4.24805C1.90312 0 0 1.90312 0 4.24805V24.752C0 27.0969 1.90312 29 4.24805 29H24.752C27.0969 29 29 27.0969 29 24.752V4.24805C29 1.90312 27.0969 0 24.752 0ZM14.5 22.593C10.286 22.593 6.40698 18.7706 6.40698 14.5566C6.40698 10.3425 10.286 6.40698 14.5 6.40698C18.714 6.40698 22.593 10.3425 22.593 14.5566C22.593 18.7706 18.714 22.593 14.5 22.593ZM23.8457 6.91016C22.9111 6.91016 22.1465 6.14551 22.1465 5.21094C22.1465 4.27637 22.9111 3.51172 23.8457 3.51172C24.7803 3.51172 25.5449 4.27637 25.5449 5.21094C25.5449 6.14551 24.7803 6.91016 23.8457 6.91016ZM14.5 9.44186C11.2205 9.44186 9.44186 12.1395 9.44186 14.5566C9.44186 17.5349 12.1395 19.5581 14.5 19.5581C17.5349 19.5581 19.5581 16.8605 19.5581 14.5566C19.5581 12.1395 17.7795 9.44186 14.5 9.44186ZM14.5 9.44186C11.2205 9.44186 9.44186 12.1395 9.44186 14.5566C9.44186 17.5349 12.1395 19.5581 14.5 19.5581C17.5349 19.5581 19.5581 16.8605 19.5581 14.5566C19.5581 12.1395 17.7795 9.44186 14.5 9.44186ZM14.5 9.44186C11.2205 9.44186 9.44186 12.1395 9.44186 14.5566C9.44186 17.5349 12.1395 19.5581 14.5 19.5581C17.5349 19.5581 19.5581 16.8605 19.5581 14.5566C19.5581 12.1395 17.7795 9.44186 14.5 9.44186Z" fill="#808080"/>
</g>
<defs>
<clipPath id="clip0_113_246">
<rect width="29" height="29" fill="white"/>
</clipPath>
</defs>
</svg>
