<svg xmlns="http://www.w3.org/2000/svg" width="255" height="60" fill="none"><path fill="gray" d="M58.817 50.956H0V2.98h58.817v47.975Zm-56.013-2.78h53.208V5.76H2.804v42.417Z"/><path fill="gray" d="M114.472 50.956H55.834V2.98h58.638v47.975Zm-55.834-2.78h53.03V5.76h-53.03v42.417ZM36.509 27.032a8.08 8.08 0 0 1 2.167 1.01 7.855 7.855 0 0 1 1.708 1.592c.484.606.841 1.288 1.122 2.046.28.758.408 1.541.408 2.375 0 1.01-.204 1.97-.587 2.855-.408.884-.917 1.667-1.606 2.324a7.298 7.298 0 0 1-2.37 1.566 7.533 7.533 0 0 1-2.907.556H23.71a7.674 7.674 0 0 1-2.83-.607 7.282 7.282 0 0 1-2.32-1.54c-.663-.657-1.172-1.415-1.58-2.274-.408-.86-.587-1.794-.587-2.78h2.881c0 .607.128 1.163.383 1.693s.586 1.01.994 1.415a4.4 4.4 0 0 0 1.453.96c.561.227 1.147.354 1.785.354H34.29v-.05c.05 0 .076 0 .102.025.025.025.05.025.102.025.637 0 1.223-.127 1.81-.354a4.105 4.105 0 0 0 1.453-.985c.408-.43.74-.91.994-1.44a4.165 4.165 0 0 0 .383-1.769.192.192 0 0 0-.051-.126v-.48c-.026-.025-.051-.05-.051-.076 0-.1-.026-.177-.051-.202v-.1c0-.026 0-.051-.026-.051-.025 0-.025-.026-.025-.05v-.077l-.051-.05v-.076c0-.025-.026-.05-.051-.076 0-.05 0-.075-.026-.1-.025-.026-.025-.051-.025-.102-.026 0-.051-.025-.051-.05 0-.026 0-.05-.026-.05-.025-.026-.025-.051-.025-.102-.026 0-.051-.025-.051-.05v-.051c-.026-.025-.051-.05-.051-.076-.026-.025-.051-.05-.051-.076-.026-.025-.051-.05-.051-.075-.026-.05-.051-.101-.077-.127-.025-.05-.05-.076-.076-.126l-.051-.05v-.051l-.077-.076-.05-.076-.052-.075-.127-.127-.077-.076c0-.025-.025-.05-.05-.075l-.077-.076-.077-.076-.05-.076c-.026 0-.051 0-.051-.025s-.026-.025-.051-.025c-.026-.026-.052-.05-.052-.076a.352.352 0 0 0-.101-.076l-.051-.05-.077-.076c-.025 0-.05 0-.05-.025 0-.026-.026-.026-.052-.026l-.076-.075-.077-.051c-.05-.05-.102-.101-.153-.126l-.076-.05c0-.026-.026-.051-.077-.051v-.05l-.076-.051c-.026 0-.051 0-.051-.026 0-.025-.026-.025-.051-.025-.051-.05-.102-.076-.153-.076a.695.695 0 0 0-.204-.075c-.026-.026-.051-.051-.077-.051-.025-.025-.05-.05-.076-.05-.026-.026-.051-.051-.077-.051h-.05c-.026-.025-.052-.05-.077-.05-.051-.026-.077-.051-.102-.051-.026 0-.051-.025-.102-.05-.026 0-.051 0-.077-.026-.025-.025-.05-.025-.076-.025h-.128v-.05h.128a56.485 56.485 0 0 0-2.32-.531 122.88 122.88 0 0 0-3.493-.682 5.653 5.653 0 0 0-.637-.127 5.674 5.674 0 0 1-.638-.126c-.357-.05-.739-.126-1.096-.202a16.72 16.72 0 0 0-1.096-.202c-.026 0-.051 0-.051-.025-.026-.026-.026-.026-.051-.026a1.27 1.27 0 0 1-.383-.076H25.47a.195.195 0 0 0-.127-.05c-.051 0-.102 0-.127-.025-.026-.026-.077-.026-.128-.026a.196.196 0 0 1-.128-.05h-.152c-.28-.05-.561-.101-.79-.126-.23-.05-.46-.076-.664-.127-.23-.05-.459-.1-.663-.126a6.687 6.687 0 0 1-.484-.076c-.153-.025-.28-.05-.408-.076a6.732 6.732 0 0 1-2.167-.985 7.285 7.285 0 0 1-1.708-1.591c-.484-.607-.841-1.289-1.122-2.047a6.785 6.785 0 0 1-.408-2.4c0-.985.179-1.92.561-2.83.383-.883.892-1.667 1.555-2.298a7.35 7.35 0 0 1 2.32-1.566 7.716 7.716 0 0 1 2.856-.632h11.167c.943.05 1.835.278 2.651.657.816.379 1.53.859 2.142 1.465a7.963 7.963 0 0 1 1.53 2.097 6.83 6.83 0 0 1 .713 2.526h-2.88c-.077-.53-.256-1.01-.485-1.49a4.57 4.57 0 0 0-.944-1.238 4.387 4.387 0 0 0-1.3-.834 4.65 4.65 0 0 0-1.555-.354H23.71a4.811 4.811 0 0 0-1.708.38 3.91 3.91 0 0 0-1.402.985c-.408.43-.714.884-.943 1.44a4.289 4.289 0 0 0-.357 1.692v.884l.05.051v.202c.026.025.052.05.052.076v.1l.05.052v.125l.052.051v.076c.025.025.05.05.05.076 0 .025 0 .05.026.05.026.026.026.026.026.05.025.051.05.102.05.127.026.05.026.076.052.127 0 .05.025.1.05.126 0 .025.026.05.052.076 0 .025 0 .05.025.05.026.025.026.025.026.05l.05.077c.026 0 .051.025.051.075h-.076c0 .05.026.076.051.076v.05l.051.051.051.05v.051c.025.025.051.05.051.076h.051c0 .05.026.076.051.076l.076.076v.025l.052.076.076.075.153.152.153.202c.025 0 .05 0 .05.025 0 .026.026.026.052.026l.076.075.077.076.076.05c0 .026.026.051.051.051v.05c.026 0 .051.026.077.051l.05.05h.052c0 .026.025.051.05.051l.052.05.05.051c.026 0 .052.026.077.05.026 0 .051 0 .051.026s.026.026.051.026l.485.277c.05 0 .102.026.153.076.05 0 .102.025.127.05h.076l.052.051h.076c.026.026.051.05.077.05h.05c0 .026.026.051.077.051.026 0 .051.026.076.05h-.152.076l.051.051h.076c.051 0 .102.026.128.05h.076c.051 0 .102.026.128.051h.254c.026 0 .205.026.51.076.307.05.715.127 1.199.202.484.076 1.07.177 1.708.278.663.101 1.351.227 2.065.354.255.05.46.1.561.126 1.275.202 2.524.455 3.799.708 1.224.025 2.294.303 3.187.58Z"/><path fill="gray" d="M97.288 41.457h-2.855V28.093h-19.02v13.364h-2.855v-28.8h2.856v12.606h19.02V12.657h2.855v28.8Z"/><mask id="a" fill="#fff"><path d="M139.457 12.606c.51.152.994.354 1.402.632.434.278.791.606 1.097 1.01.306.38.56.809.739 1.289a4.277 4.277 0 0 1-.102 3.284 4.68 4.68 0 0 1-1.045 1.465c-.434.43-.944.758-1.53.986a5.215 5.215 0 0 1-1.887.353h-6.985a5.398 5.398 0 0 1-1.836-.379 4.31 4.31 0 0 1-1.504-.985 4.487 4.487 0 0 1-1.02-1.44 4.163 4.163 0 0 1-.382-1.768h1.886c0 .379.077.732.255 1.086.153.328.383.631.638.884s.586.455.943.607c.357.151.739.227 1.147.227h6.756v-.025h.153c.408 0 .791-.076 1.173-.228.357-.151.688-.354.943-.606.255-.253.485-.581.638-.91.153-.353.255-.707.255-1.111 0-.025 0-.05-.026-.076v.025-.252c-.025-.026-.025-.026-.025-.05 0-.077 0-.102-.026-.127v-.076c0-.025 0-.025-.025-.025 0 0-.026 0-.026-.026v-.05l-.025-.025v-.05c0-.026 0-.026-.026-.051 0-.026 0-.05-.025-.05v-.051c-.026 0-.026 0-.026-.026 0-.025 0-.025-.025-.025 0 0-.026-.025-.026-.05-.025 0-.025 0-.025-.026v-.025c-.026-.025-.026-.025-.026-.05-.025-.026-.025-.026-.025-.051-.026-.025-.026-.025-.026-.05-.025-.026-.025-.051-.051-.076-.025-.026-.025-.05-.051-.076l-.025-.025v-.026l-.051-.05-.026-.05-.025-.051-.077-.076-.051-.05c0-.026 0-.026-.025-.051l-.051-.05-.051-.051-.026-.05H140.247l-.051-.051c0-.025-.025-.025-.076-.05l-.026-.026-.051-.05H139.992l-.051-.051-.051-.025c-.025-.026-.076-.05-.101-.076l-.051-.025c0-.026-.026-.026-.051-.026v-.025l-.051-.025H139.585a.197.197 0 0 0-.102-.05c-.077-.026-.102-.051-.128-.051-.025-.025-.025-.025-.051-.025-.025-.026-.025-.026-.051-.026-.025-.025-.025-.025-.051-.025h-.025c-.026-.025-.026-.025-.051-.025-.026-.026-.051-.026-.077-.026 0 0-.025 0-.076-.025h-.179V14.4h-.051a23.716 23.716 0 0 0-1.504-.328c-.688-.152-1.453-.278-2.269-.43-.127-.025-.28-.05-.408-.076-.127-.025-.28-.05-.408-.075a7.088 7.088 0 0 1-.714-.127 7.018 7.018 0 0 0-.714-.126h-.102c-.076 0-.153-.025-.254-.05h-.102c-.026-.026-.051-.026-.077-.026h-.153c-.025 0-.051 0-.076-.025h-.102a23.18 23.18 0 0 1-.944-.152c-.153-.025-.306-.05-.433-.075-.128-.026-.23-.026-.332-.051-.102-.025-.178-.025-.255-.05a4.372 4.372 0 0 1-1.402-.607 4.173 4.173 0 0 1-1.096-1.01 4.589 4.589 0 0 1-.739-1.289 4.312 4.312 0 0 1 .102-3.31 4.906 4.906 0 0 1 1.019-1.465 5.159 5.159 0 0 1 1.505-.985 5.112 5.112 0 0 1 1.861-.404h7.266a4.843 4.843 0 0 1 3.136 1.339 4.6 4.6 0 0 1 .994 1.314c.255.505.408 1.035.459 1.591h-1.887a2.581 2.581 0 0 0-.331-.935 2.616 2.616 0 0 0-.612-.783 2.946 2.946 0 0 0-.841-.53 3.337 3.337 0 0 0-1.02-.228h-7.164a3.444 3.444 0 0 0-1.122.253 2.896 2.896 0 0 0-.918.606 2.866 2.866 0 0 0-.612.91 2.595 2.595 0 0 0-.229 1.086v.076-.101V8.539l.025.025v.126c.026.026.026.026.026.051v.076l.025.025v.076l.026.025v.05c.025.026.025.026.025.051 0 .025 0 .025.026.025l.025.026c.026.025.026.05.051.076 0 .025.026.05.051.075 0 .026 0 .05.026.076 0 .025 0 .025.025.05 0 .026 0 .026.026.026v.025l.025.05c.026 0 .026.026.026.051h.025c0 .025 0 .05.026.05V9.6l.025.025.026.026v.025c.025.025.025.025.025.05h.026c0 .026 0 .05.025.05l.051.051v.026l.026.05.051.05.102.102.102.126H129.234l.051.05.051.051.051.025c0 .026 0 .026.025.026v.025c.026 0 .026 0 .051.025l.026.025h.025c0 .026 0 .026.026.026l.025.025.026.025c.025 0 .025 0 .051.025H129.693l.305.177c.026 0 .077.026.102.05.026 0 .051 0 .077.026h.051l.025.025h.051c.026.026.026.026.051.026h.026c0 .025.025.025.051.025.025 0 .025 0 .051.025h.076l.026.025h.051c.025 0 .051 0 .076.026h.051c.026 0 .051 0 .077.025h.153c.025 0 .127.025.331.05.204.026.459.076.791.127.305.05.688.1 1.121.177.434.075.867.151 1.326.227.179.025.281.05.357.076.816.126 1.657.278 2.473.454.79.203 1.504.38 2.065.556Z"/></mask><path fill="gray" stroke="gray" stroke-width="10" d="M139.457 12.606c.51.152.994.354 1.402.632.434.278.791.606 1.097 1.01.306.38.56.809.739 1.289a4.277 4.277 0 0 1-.102 3.284 4.68 4.68 0 0 1-1.045 1.465c-.434.43-.944.758-1.53.986a5.215 5.215 0 0 1-1.887.353h-6.985a5.398 5.398 0 0 1-1.836-.379 4.31 4.31 0 0 1-1.504-.985 4.487 4.487 0 0 1-1.02-1.44 4.163 4.163 0 0 1-.382-1.768h1.886c0 .379.077.732.255 1.086.153.328.383.631.638.884s.586.455.943.607c.357.151.739.227 1.147.227h6.756v-.025h.153c.408 0 .791-.076 1.173-.228.357-.151.688-.354.943-.606.255-.253.485-.581.638-.91.153-.353.255-.707.255-1.111 0-.025 0-.05-.026-.076v.025-.252c-.025-.026-.025-.026-.025-.05 0-.077 0-.102-.026-.127v-.076c0-.025 0-.025-.025-.025 0 0-.026 0-.026-.026v-.05l-.025-.025v-.05c0-.026 0-.026-.026-.051 0-.026 0-.05-.025-.05v-.051c-.026 0-.026 0-.026-.026 0-.025 0-.025-.025-.025 0 0-.026-.025-.026-.05-.025 0-.025 0-.025-.026v-.025c-.026-.025-.026-.025-.026-.05-.025-.026-.025-.026-.025-.051-.026-.025-.026-.025-.026-.05-.025-.026-.025-.051-.051-.076-.025-.026-.025-.05-.051-.076l-.025-.025v-.026l-.051-.05-.026-.05-.025-.051-.077-.076-.051-.05c0-.026 0-.026-.025-.051l-.051-.05-.051-.051-.026-.05H140.247l-.051-.051c0-.025-.025-.025-.076-.05l-.026-.026-.051-.05H139.992l-.051-.051-.051-.025c-.025-.026-.076-.05-.101-.076l-.051-.025c0-.026-.026-.026-.051-.026v-.025l-.051-.025H139.585a.197.197 0 0 0-.102-.05c-.077-.026-.102-.051-.128-.051-.025-.025-.025-.025-.051-.025-.025-.026-.025-.026-.051-.026-.025-.025-.025-.025-.051-.025h-.025c-.026-.025-.026-.025-.051-.025-.026-.026-.051-.026-.077-.026 0 0-.025 0-.076-.025h-.179V14.4h-.051a23.716 23.716 0 0 0-1.504-.328c-.688-.152-1.453-.278-2.269-.43-.127-.025-.28-.05-.408-.076-.127-.025-.28-.05-.408-.075a7.088 7.088 0 0 1-.714-.127 7.018 7.018 0 0 0-.714-.126h-.102c-.076 0-.153-.025-.254-.05h-.102c-.026-.026-.051-.026-.077-.026h-.153c-.025 0-.051 0-.076-.025h-.102a23.18 23.18 0 0 1-.944-.152c-.153-.025-.306-.05-.433-.075-.128-.026-.23-.026-.332-.051-.102-.025-.178-.025-.255-.05a4.372 4.372 0 0 1-1.402-.607 4.173 4.173 0 0 1-1.096-1.01 4.589 4.589 0 0 1-.739-1.289 4.312 4.312 0 0 1 .102-3.31 4.906 4.906 0 0 1 1.019-1.465 5.159 5.159 0 0 1 1.505-.985 5.112 5.112 0 0 1 1.861-.404h7.266a4.843 4.843 0 0 1 3.136 1.339 4.6 4.6 0 0 1 .994 1.314c.255.505.408 1.035.459 1.591h-1.887a2.581 2.581 0 0 0-.331-.935 2.616 2.616 0 0 0-.612-.783 2.946 2.946 0 0 0-.841-.53 3.337 3.337 0 0 0-1.02-.228h-7.164a3.444 3.444 0 0 0-1.122.253 2.896 2.896 0 0 0-.918.606 2.866 2.866 0 0 0-.612.91 2.595 2.595 0 0 0-.229 1.086v.076-.101V8.539l.025.025v.126c.026.026.026.026.026.051v.076l.025.025v.076l.026.025v.05c.025.026.025.026.025.051 0 .025 0 .025.026.025l.025.026c.026.025.026.05.051.076 0 .025.026.05.051.075 0 .026 0 .05.026.076 0 .025 0 .025.025.05 0 .026 0 .026.026.026v.025l.025.05c.026 0 .026.026.026.051h.025c0 .025 0 .05.026.05V9.6l.025.025.026.026v.025c.025.025.025.025.025.05h.026c0 .026 0 .05.025.05l.051.051v.026l.026.05.051.05.102.102.102.126H129.234l.051.05.051.051.051.025c0 .026 0 .026.025.026v.025c.026 0 .026 0 .051.025l.026.025h.025c0 .026 0 .026.026.026l.025.025.026.025c.025 0 .025 0 .051.025H129.693l.305.177c.026 0 .077.026.102.05.026 0 .051 0 .077.026h.051l.025.025h.051c.026.026.026.026.051.026h.026c0 .025.025.025.051.025.025 0 .025 0 .051.025h.076l.026.025h.051c.025 0 .051 0 .076.026h.051c.026 0 .051 0 .077.025h.153c.025 0 .127.025.331.05.204.026.459.076.791.127.305.05.688.1 1.121.177.434.075.867.151 1.326.227.179.025.281.05.357.076.816.126 1.657.278 2.473.454.79.203 1.504.38 2.065.556Z" mask="url(#a)"/><mask id="b" fill="#fff"><path d="M161.587 13.516h-7.904v8.16h-1.912V3.587h11.651c.689.05 1.326.202 1.938.506a5.085 5.085 0 0 1 1.581 1.111c.433.455.79.96 1.07 1.541.255.581.408 1.188.408 1.82a4.78 4.78 0 0 1-.357 1.793c-.229.58-.586 1.06-.994 1.516a6.09 6.09 0 0 1-1.504 1.111 5.918 5.918 0 0 1-1.861.581h-2.116v-.05Zm1.784-1.743c.434-.05.842-.177 1.224-.354.382-.202.714-.43.994-.707.281-.278.485-.607.663-.986.179-.379.255-.758.255-1.187 0-.43-.076-.834-.255-1.213a3.47 3.47 0 0 0-.714-1.01c-.306-.278-.662-.53-1.07-.682a3.766 3.766 0 0 0-1.301-.303h-9.458v6.442h9.662Z"/></mask><path fill="gray" d="M161.587 13.516h-7.904v8.16h-1.912V3.587h11.651c.689.05 1.326.202 1.938.506a5.085 5.085 0 0 1 1.581 1.111c.433.455.79.96 1.07 1.541.255.581.408 1.188.408 1.82a4.78 4.78 0 0 1-.357 1.793c-.229.58-.586 1.06-.994 1.516a6.09 6.09 0 0 1-1.504 1.111 5.918 5.918 0 0 1-1.861.581h-2.116v-.05Zm1.784-1.743c.434-.05.842-.177 1.224-.354.382-.202.714-.43.994-.707.281-.278.485-.607.663-.986.179-.379.255-.758.255-1.187 0-.43-.076-.834-.255-1.213a3.47 3.47 0 0 0-.714-1.01c-.306-.278-.662-.53-1.07-.682a3.766 3.766 0 0 0-1.301-.303h-9.458v6.442h9.662Z"/><path fill="gray" d="M161.587 13.516h5v-5h-5v5Zm-7.904 0v-5h-5v5h5Zm0 8.16v5h5v-5h-5Zm-1.912 0h-5v5h5v-5Zm0-18.089v-5h-5v5h5Zm11.651 0 .366-4.986-.182-.014h-.184v5Zm1.938.506-2.22 4.48.076.037.076.035 2.068-4.552Zm2.651 2.652 4.579-2.009-.036-.083-.04-.081-4.503 2.173Zm-.943 5.129 3.519 3.551.105-.103.098-.11-3.722-3.338Zm-3.365 1.692v5h.379l.374-.057-.753-4.943Zm-2.116 0h-5v5h5v-5Zm3.008-2.147 2.099 4.538.12-.055.117-.062-2.336-4.421Zm.943-5.103 3.52-3.552-.077-.076-.081-.073-3.362 3.7Zm-1.07-.682-1.989 4.587.122.053.125.047 1.742-4.687Zm-1.301-.303.275-4.993-.137-.007h-.138v5Zm-9.458 0v-5h-5v5h5Zm0 6.442h-5v5h5v-5Zm7.878-3.257h-7.904v10h7.904v-10Zm-12.904 5v8.16h10v-8.16h-10Zm5 3.16h-1.912v10h1.912v-10Zm3.088 5V3.587h-10v18.089h10Zm-5-13.089h11.651v-10h-11.651v10Zm11.285-.013a1.196 1.196 0 0 1 .113.011.34.34 0 0 1-.029-.012l4.44-8.96c-1.29-.64-2.578-.923-3.792-1.012l-.732 9.973Zm.236.071c.055.025.057.038.029.009l7.239-6.9a10.079 10.079 0 0 0-3.133-2.214l-4.135 9.105Zm.029.009a.954.954 0 0 1 .187.265l9.006-4.347a10.974 10.974 0 0 0-1.954-2.817l-7.239 6.899Zm.112.1c.018.043.015.044.007.008a.877.877 0 0 1-.021-.198h10c0-1.456-.355-2.748-.829-3.828l-9.157 4.018Zm-.014-.19.003-.042c.001-.017.004-.03.006-.041.002-.01.003-.014.001-.008a.349.349 0 0 1-.017.048l9.301 3.673a9.794 9.794 0 0 0 .706-3.63h-10Zm-.007-.043a.989.989 0 0 1 .08-.161s-.009.014-.033.043c-.024.03-.06.073-.113.132l7.444 6.677c.595-.662 1.384-1.653 1.923-3.018l-9.301-3.673Zm.137-.199a1.775 1.775 0 0 1-.174.154.8.8 0 0 1-.107.068l4.592 8.883a11.077 11.077 0 0 0 2.727-2.002l-7.038-7.103Zm-.281.222c-.012.006-.031.015-.071.027-.043.013-.12.033-.248.052l1.507 9.886a10.903 10.903 0 0 0 3.404-1.082l-4.592-8.883Zm.435.022h-2.116v10h2.116v-10Zm2.884 5v-.05h-10v.05h10Zm-2.637 3.173a9.016 9.016 0 0 0 2.744-.782l-4.198-9.076c.026-.012.129-.055.296-.075l1.158 9.933Zm2.981-.9a9.105 9.105 0 0 0 2.178-1.576L162.07 7.16c.156-.154.259-.199.189-.162l4.672 8.842Zm2.178-1.576c.834-.827 1.339-1.71 1.667-2.406l-9.047-4.261c-.03.062.067-.165.341-.436l7.039 7.103Zm1.667-2.406a7.686 7.686 0 0 0 .731-3.318h-10a2.337 2.337 0 0 1 .222-.943l9.047 4.26Zm.731-3.318a7.798 7.798 0 0 0-.731-3.343l-9.047 4.26a2.211 2.211 0 0 1-.222-.917h10Zm-.731-3.343a8.49 8.49 0 0 0-1.718-2.432l-7.039 7.103a1.484 1.484 0 0 1-.29-.41l9.047-4.261ZM168.9 2.615c-.597-.543-1.492-1.223-2.691-1.668l-3.483 9.374a2.155 2.155 0 0 1-.424-.21 1.011 1.011 0 0 1-.125-.094l6.723-7.402Zm-2.444-1.569a8.757 8.757 0 0 0-3.014-.708l-.549 9.985a1.24 1.24 0 0 1-.414-.102l3.977-9.175Zm-3.289-.715h-9.458v10h9.458v-10Zm-14.458 5v6.442h10V5.33h-10Zm5 11.442h9.662v-10h-9.662v10Z" mask="url(#b)"/><mask id="c" fill="#fff"><path d="M199.37 21.701h-2.065l-3.671-6.821h-10.53l-3.671 6.821h-2.065l9.867-18.392H189.453l9.917 18.392Zm-15.322-8.64h8.617l-4.283-8.008h-.026l-4.308 8.008Z"/></mask><path fill="gray" d="M199.37 21.701h-2.065l-3.671-6.821h-10.53l-3.671 6.821h-2.065l9.867-18.392H189.453l9.917 18.392Zm-15.322-8.64h8.617l-4.283-8.008h-.026l-4.308 8.008Z"/><path fill="gray" d="M199.37 21.701v5h8.377l-3.976-7.373-4.401 2.373Zm-2.065 0-4.403 2.37 1.416 2.63h2.987v-5Zm-3.671-6.821 4.403-2.37-1.416-2.63h-2.987v5Zm-10.53 0v-5h-2.987l-1.415 2.63 4.402 2.37Zm-3.671 6.821v5h2.987l1.416-2.63-4.403-2.37Zm-2.065 0-4.406-2.364-3.95 7.364h8.356v-5Zm9.867-18.392v-5h-2.992L182.829.946l4.406 2.363Zm2.218 0 4.4-2.373-1.416-2.627h-2.984v5Zm-5.405 9.752-4.404-2.369-3.964 7.37h8.368v-5Zm8.617 0v5h8.344l-3.935-7.358-4.409 2.358Zm-4.283-8.008 4.409-2.358-1.413-2.642h-2.996v5Zm-.026 0v-5h-2.987l-1.416 2.63 4.403 2.37ZM199.37 16.7h-2.065v10h2.065v-10Zm2.338 2.63-3.671-6.82-8.806 4.739 3.671 6.82 8.806-4.739Zm-8.074-9.451h-10.53v10h10.53v-10Zm-14.932 2.63-3.672 6.821 8.806 4.74 3.671-6.821-8.805-4.74Zm.731 4.191h-2.065v10h2.065v-10Zm2.341 7.364 9.867-18.392-8.812-4.727-9.867 18.391 8.812 4.728Zm5.461-15.756h.025v-10h-.025v10Zm.025 0h.612v-10h-.612v10Zm.612 0h.484v-10h-.484v10Zm.484 0h.485v-10h-.485v10Zm.485 0h.586v-10h-.586v10Zm.586 0h.026v-10h-.026v10Zm-4.375-2.626 9.917 18.391 8.802-4.746L193.853.936l-8.801 4.747Zm-1.004 12.378h8.617v-10h-8.617v10Zm13.026-7.358-4.283-8.008-8.818 4.716 4.283 8.008 8.818-4.716ZM188.382.053h-.026v10h.026v-10Zm-4.429 2.63-4.309 8.01 8.807 4.737 4.308-8.008-8.806-4.738Z" mask="url(#c)"/><mask id="d" fill="#fff"><path d="M211.276 19.832h2.805v1.793h-7.266v-1.793h2.804V5.356h-2.804V3.562h7.266v1.794h-2.805v14.476Z"/></mask><path fill="gray" d="M211.276 19.832h2.805v1.793h-7.266v-1.793h2.804V5.356h-2.804V3.562h7.266v1.794h-2.805v14.476Z"/><path fill="gray" d="M211.276 19.832h-5v5h5v-5Zm2.805 0h5v-5h-5v5Zm0 1.793v5h5v-5h-5Zm-7.266 0h-5v5h5v-5Zm0-1.793v-5h-5v5h5Zm2.804 0v5h5v-5h-5Zm0-14.476h5v-5h-5v5Zm-2.804 0h-5v5h5v-5Zm0-1.794v-5h-5v5h5Zm7.266 0h5v-5h-5v5Zm0 1.794v5h5v-5h-5Zm-2.805 0v-5h-5v5h5Zm0 19.476h2.805v-10h-2.805v10Zm-2.195-5v1.793h10v-1.793h-10Zm5-3.207h-7.266v10h7.266v-10Zm-2.266 5v-1.793h-10v1.793h10Zm-5 3.207h2.804v-10h-2.804v10Zm7.804-5V5.356h-10v14.476h10Zm-5-19.476h-2.804v10h2.804v-10Zm2.196 5V3.562h-10v1.794h10Zm-5 3.206h7.266v-10h-7.266v10Zm2.266-5v1.794h10V3.562h-10Zm5-3.206h-2.805v10h2.805v-10Zm-7.805 5v14.476h10V5.356h-10Z" mask="url(#d)"/><mask id="e" fill="#fff"><path d="M241.335 21.726h-1.887L224.661 6.164v15.562h-1.836V3.536h1.862L239.499 19.1V3.562h1.861v18.164h-.025Z"/></mask><path fill="gray" d="M241.335 21.726h-1.887L224.661 6.164v15.562h-1.836V3.536h1.862L239.499 19.1V3.562h1.861v18.164h-.025Z"/><path fill="gray" d="m239.448 21.726-3.625 3.444 1.479 1.556h2.146v-5ZM224.661 6.164l3.625-3.444-8.625-9.077V6.164h5Zm0 15.562v5h5v-5h-5Zm-1.836 0h-5v5h5v-5Zm0-18.19v-5h-5v5h5Zm1.862 0L228.308.09l-1.478-1.553h-2.143v5ZM239.499 19.1l-3.622 3.447 8.622 9.058V19.1h-5Zm0-15.537v-5h-5v5h5Zm1.861 0h5v-5h-5v5Zm0 18.164v5h5v-5h-5Zm-.025-5h-1.861v10h1.861v-10Zm-1.861 0h-.026v10h.026v-10Zm3.599 1.556L228.286 2.72l-7.25 6.888 14.787 15.562 7.25-6.888ZM219.661 6.164v15.562h10V6.164h-10Zm5 10.562h-1.836v10h1.836v-10Zm3.164 5V3.536h-10v18.19h10Zm-5-13.19h1.862v-10h-1.862v10Zm-1.76-1.552 14.812 15.562 7.244-6.894L228.308.09l-7.243 6.894ZM244.499 19.1V3.562h-10V19.1h10Zm-5-10.537h1.861v-10h-1.861v10Zm-3.139-5v18.164h10V3.562h-10Zm5 13.164h-.025v10h.025v-10Z" mask="url(#e)"/><path fill="gray" d="M142.44 50.779h-1.861v-8.438h-12.34v8.438h-1.861v-18.19h1.861v7.958h12.365V32.59h1.861v18.189h-.025ZM161.383 32.615c1.325 0 2.549.227 3.722.707s2.193 1.137 3.034 1.945a9.055 9.055 0 0 1 2.065 2.88c.51 1.087.765 2.274.765 3.537a8.327 8.327 0 0 1-.765 3.537 9.654 9.654 0 0 1-2.065 2.88 10.205 10.205 0 0 1-3.034 1.945c-1.173.48-2.397.708-3.722.708-1.326 0-2.55-.228-3.723-.708a10.187 10.187 0 0 1-3.033-1.945 9.06 9.06 0 0 1-2.066-2.88c-.509-1.086-.764-2.274-.764-3.537a8.34 8.34 0 0 1 .764-3.537 9.658 9.658 0 0 1 2.066-2.88 10.187 10.187 0 0 1 3.033-1.945c1.173-.48 2.422-.707 3.723-.707Zm0 16.446c1.07 0 2.09-.202 3.034-.581.943-.379 1.784-.91 2.473-1.592.713-.656 1.249-1.44 1.682-2.349.408-.91.612-1.87.612-2.88 0-1.01-.204-1.97-.612-2.88a7.679 7.679 0 0 0-1.682-2.35 8.63 8.63 0 0 0-2.473-1.591 8.109 8.109 0 0 0-3.034-.581 8.101 8.101 0 0 0-3.034.58 7.669 7.669 0 0 0-2.473 1.592c-.714.657-1.249 1.44-1.683 2.35a6.79 6.79 0 0 0-.612 2.88c0 1.01.204 1.996.612 2.88.408.91.969 1.693 1.683 2.35a8.617 8.617 0 0 0 2.473 1.591 8.1 8.1 0 0 0 3.034.581ZM196.591 32.615v10.332a7.288 7.288 0 0 1-.663 3.032 7.534 7.534 0 0 1-1.784 2.476 8.408 8.408 0 0 1-2.652 1.667 8.673 8.673 0 0 1-3.238.606 8.713 8.713 0 0 1-3.263-.606 8.392 8.392 0 0 1-2.651-1.667 7.794 7.794 0 0 1-1.785-2.476 7.288 7.288 0 0 1-.663-3.032V32.615h1.836v9.751c.025.101.025.202.025.303v.304c.026.833.204 1.617.536 2.374.331.733.79 1.365 1.376 1.92a6.345 6.345 0 0 0 2.04 1.289c.79.328 1.632.48 2.524.48.892 0 1.733-.152 2.524-.48a7.603 7.603 0 0 0 2.09-1.289c.612-.53 1.046-1.187 1.403-1.92a5.68 5.68 0 0 0 .51-2.374V32.615h1.835ZM218.619 41.659c.51.151.994.354 1.402.632.433.277.79.606 1.096 1.01.306.379.561.808.74 1.288a4.277 4.277 0 0 1-.102 3.284 4.666 4.666 0 0 1-1.046 1.466 4.41 4.41 0 0 1-1.529.985 5.217 5.217 0 0 1-1.887.354H210.307a5.4 5.4 0 0 1-1.835-.379 4.3 4.3 0 0 1-1.504-.985 4.485 4.485 0 0 1-1.02-1.44 4.163 4.163 0 0 1-.383-1.769h1.887c0 .38.076.733.255 1.087.153.328.382.631.637.884.255.252.587.455.944.606.357.152.739.227 1.147.227h6.756v-.025h.153c.408 0 .79-.076 1.173-.227.357-.152.688-.354.943-.606.255-.253.484-.582.637-.91.153-.354.255-.707.255-1.111 0-.026 0-.051-.025-.076v.025-.252c-.026-.026-.026-.026-.026-.051 0-.076 0-.101-.025-.127V45.474c0-.026 0-.026-.026-.026 0 0-.025 0-.025-.025v-.05l-.026-.026v-.05c0-.025 0-.025-.025-.05 0-.026 0-.051-.026-.051v-.05c-.025 0-.025 0-.025-.026 0-.025 0-.025-.026-.025 0 0-.025-.026-.025-.05-.026 0-.026 0-.026-.026v-.025c-.025-.026-.025-.026-.025-.05-.026-.026-.026-.026-.026-.051-.025-.026-.025-.026-.025-.05-.026-.026-.026-.051-.051-.077-.026-.025-.025-.05-.051-.075l-.025-.026v-.025l-.051-.05-.026-.051-.025-.05-.077-.076-.051-.05c0-.026 0-.026-.025-.051l-.077-.101-.051-.051-.025-.05H219.384l-.051-.051c0-.025-.026-.025-.077-.05v-.051l-.051-.05H219.154l-.051-.051-.051-.025c-.025-.026-.076-.05-.102-.076l-.051-.026c0-.025-.025-.025-.051-.025v-.025l-.051-.025H218.746a.191.191 0 0 0-.102-.05c-.076-.026-.102-.051-.127-.051-.026-.026-.026-.026-.051-.026-.026-.025-.026-.025-.051-.025-.026-.025-.026-.025-.051-.025h-.026c-.025-.025-.025-.025-.051-.025-.025-.026-.051-.026-.076-.026 0 0-.026 0-.077-.025h-.153v-.025h-.051c-.306-.076-.815-.202-1.504-.329-.688-.151-1.453-.278-2.269-.429-.127-.025-.28-.05-.408-.076-.127-.025-.28-.05-.408-.076a7.117 7.117 0 0 1-.714-.126 7.02 7.02 0 0 0-.713-.126h-.102c-.077 0-.153-.026-.255-.05h-.128c-.025-.026-.051-.026-.076-.026h-.153c-.026 0-.051 0-.077-.025h-.102c-.178-.026-.357-.05-.51-.076-.153-.025-.306-.05-.433-.076-.153-.025-.306-.05-.433-.076-.128-.025-.23-.025-.332-.05-.102-.026-.178-.026-.255-.05a4.364 4.364 0 0 1-1.402-.607 4.174 4.174 0 0 1-1.096-1.01 4.615 4.615 0 0 1-.74-1.289 4.334 4.334 0 0 1 .102-3.31 4.908 4.908 0 0 1 1.02-1.465 5.167 5.167 0 0 1 1.504-.985 5.123 5.123 0 0 1 1.861-.404H217.573a4.84 4.84 0 0 1 3.136 1.339c.408.379.74.808.995 1.313.255.506.408 1.036.459 1.592h-1.887a2.564 2.564 0 0 0-.332-.935 2.597 2.597 0 0 0-.611-.783 2.95 2.95 0 0 0-.842-.53 3.338 3.338 0 0 0-1.02-.228h-7.164a3.446 3.446 0 0 0-1.121.253 2.895 2.895 0 0 0-.918.606 2.865 2.865 0 0 0-.612.91 2.596 2.596 0 0 0-.229 1.086V37.693l.025.025v.126c.026.026.025.026.025.05v.077l.026.025v.076l.025.025v.05c.026.026.026.026.026.05 0 .026 0 .026.025.026l.026.025c.025.026.025.051.051.076 0 .026.025.05.051.076 0 .025 0 .05.025.076 0 .025 0 .025.026.05 0 .026 0 .026.025.026v.025l.026.05c.025 0 .025.026.025.05h.026c0 .026 0 .051.025.051v.026l.026.025.025.025v.026c.026.025.026.025.026.05h.025c0 .025 0 .05.026.05l.051.051v.025l.025.05.051.051.102.101.102.127H208.395l.051.05.051.05.051.026c0 .025 0 .025.026.025v.026c.025 0 .025 0 .051.025l.025.025h.026c0 .025 0 .025.025.025l.026.026.025.025c.026 0 .026 0 .051.025H208.854l.306.177c.026 0 .077.025.102.05.026 0 .051 0 .077.026h.051l.025.025h.051c.026.025.026.025.051.025h.026c0 .026.025.026.051.026.025 0 .025 0 .051.025h.076l.026.025h.051c.025 0 .051 0 .076.025h.051c.026 0 .051 0 .076.026h.153c.026 0 .128.025.332.05.204.025.459.076.79.127.306.05.689.1 1.122.176.433.076.867.152 1.326.228.178.025.28.05.357.075.816.127 1.657.278 2.473.455.79.101 1.478.278 2.065.455ZM245.541 50.779h-14.634V32.615h14.634v1.768h-12.798v6.19h12.798v1.768h-12.798v6.67h12.798v1.768ZM243.604 26.804H126.327v1.263h117.277v-1.263Z"/></svg>