<svg width="26" height="26" viewBox="0 0 26 26" fill="none" xmlns="http://www.w3.org/2000/svg">
<path d="M24.9167 11.9391H1.08333C0.485331 11.9391 0 12.4245 0 13.0225C0 13.6205 0.485331 14.1058 1.08333 14.1058H24.9167C25.5147 14.1058 26 13.6205 26 13.0225C26 12.4245 25.5147 11.9391 24.9167 11.9391Z" fill="black"/>
<path d="M24.9167 20.2448H1.08333C0.485331 20.2448 0 20.7301 0 21.3281C0 21.9261 0.485331 22.4115 1.08333 22.4115H24.9167C25.5147 22.4115 26 21.9261 26 21.3281C26 20.7301 25.5147 20.2448 24.9167 20.2448Z" fill="black"/>
<path d="M24.9167 3.63378H1.08333C0.485331 3.63378 0 4.11911 0 4.71711C0 5.31511 0.485331 5.80045 1.08333 5.80045H24.9167C25.5147 5.80045 26 5.31511 26 4.71711C26 4.11911 25.5147 3.63378 24.9167 3.63378Z" fill="black"/>
</svg>
