<svg width="18" height="18" viewBox="0 0 18 18" fill="none" xmlns="http://www.w3.org/2000/svg">
<g clip-path="url(#clip0_67_141)">
<path d="M9.00249 18.002C13.9728 18.002 18.0021 13.9727 18.0021 9.00237C18.0021 4.03201 13.9728 0.00274658 9.00249 0.00274658C4.03214 0.00274658 0.00286865 4.03201 0.00286865 9.00237C0.00286865 13.9727 4.03214 18.002 9.00249 18.002Z" fill="white"/>
<path d="M17.4856 5.99924H11.9404C12.1813 7.92179 12.1827 10.0402 11.945 11.9651H17.4974C17.8215 11.0364 17.9997 10.0392 17.9997 9.00008C17.9999 7.94736 17.8175 6.93784 17.4856 5.99924Z" fill="#2B479D"/>
<path d="M11.9404 5.99922H17.4855C17.4847 5.99637 17.4838 5.99397 17.4827 5.99139C16.3309 2.74361 13.368 0.354115 9.80811 0.0369263C11.1858 0.792069 11.5883 3.18457 11.9404 5.99922Z" fill="#EFECEC"/>
<path d="M9.80835 17.9626C13.3746 17.6449 16.3416 15.2471 17.489 11.9907C17.492 11.982 17.4945 11.9734 17.4976 11.9651H11.9452C11.5957 14.795 11.1916 17.2043 9.80835 17.9626Z" fill="#E63026"/>
<path d="M0 9.00002C0 10.0393 0.178488 11.0364 0.502326 11.965H12.4083C12.6462 10.0399 12.6445 7.92173 12.4039 5.99918H0.514297C0.182326 6.93782 0 7.94734 0 9.00002Z" fill="#3757A6"/>
<path d="M0.517132 5.99143C0.516296 5.99398 0.515422 5.99641 0.514282 5.99926H12.4039C12.0515 3.18457 11.1858 0.79211 9.80825 0.0369668C9.54179 0.0133686 9.27237 3.0518e-05 8.99983 3.0518e-05C5.08469 -7.48233e-06 1.7553 2.50045 0.517132 5.99143Z" fill="#EFEFEF"/>
<path d="M12.4083 11.9651H0.502319C0.505321 11.9735 0.508133 11.982 0.510983 11.9906C1.74421 15.4905 5.0784 17.9999 8.9998 17.9999C9.27238 17.9999 9.5418 17.9865 9.80822 17.9626C11.1916 17.2044 12.0589 14.795 12.4083 11.9651Z" fill="#E73B36"/>
</g>
<defs>
<clipPath id="clip0_67_141">
<rect width="18" height="18" fill="white"/>
</clipPath>
</defs>
</svg>
