<svg width="18" height="18" viewBox="0 0 18 18" fill="none" xmlns="http://www.w3.org/2000/svg">
<g clip-path="url(#clip0_67_153)">
<path d="M9 18C11.8797 18 14.4412 16.6465 16.0885 14.5423H11.3483C10.7364 16.5821 10.3949 18 9 18Z" fill="#C42126"/>
<path d="M8.46577 17.9846C8.46421 17.9846 8.4628 17.9843 8.46124 17.9843C8.4628 17.9843 8.46435 17.9846 8.46577 17.9846Z" fill="#C42126"/>
<path d="M11.3483 3.45774H16.0886C14.4411 1.35386 11.8796 0 9 0C10.3949 0 10.7364 1.41793 11.3483 3.45774Z" fill="#C42126"/>
<path d="M8.46124 0.0156857C8.4628 0.0156857 8.46421 0.0153135 8.46577 0.0153135C8.46435 0.0152603 8.4628 0.0152603 8.46124 0.0156857Z" fill="#C42126"/>
<path d="M16.0887 3.45776H11.3483C12.3049 6.64638 12.3049 11.3541 11.3483 14.5422H16.0882C17.2848 13.0143 18 11.0915 18 9.00008C18.0001 6.90885 17.2849 4.98586 16.0887 3.45776Z" fill="#FFC40C"/>
<path d="M9.00001 17.9995C8.82095 17.9995 8.64303 17.9944 8.46625 17.9845C8.64554 17.9941 8.8238 17.9995 9.00001 17.9995Z" fill="#C42126"/>
<path d="M8.46625 0.0152775C8.64299 0.00508024 8.82095 0 9.00001 0C8.8238 0 8.64554 0.00563245 8.46625 0.0152775Z" fill="#C42126"/>
<path d="M12.0103 14.5423H1.9118C3.45552 16.5143 5.80257 17.8271 8.46122 17.9842C8.46293 17.9842 8.46449 17.9845 8.4662 17.9845C8.64298 17.9947 8.8209 18 8.99996 18C10.3949 18 11.3983 16.5821 12.0103 14.5423Z" fill="#D32030"/>
<path d="M1.9118 3.45774H12.0104C11.3983 1.41793 10.3949 0 9 0C8.82094 0 8.64302 0.00524412 8.46624 0.0157704C8.46453 0.0157704 8.46297 0.0160364 8.46126 0.0160364C5.80257 0.173094 3.45552 1.48603 1.9118 3.45774Z" fill="#D32030"/>
<path d="M6.10352e-05 9.00008C6.10352e-05 11.0915 0.715276 13.0143 1.91181 14.5422H12.0104C12.967 11.3539 12.967 6.64619 12.0104 3.45776H1.91181C0.715276 4.98586 6.10352e-05 6.90885 6.10352e-05 9.00008Z" fill="#FFD034"/>
</g>
<defs>
<clipPath id="clip0_67_153">
<rect width="18" height="18" fill="white"/>
</clipPath>
</defs>
</svg>
