<svg width="25" height="25" viewBox="0 0 25 25" fill="none" xmlns="http://www.w3.org/2000/svg">
<g clip-path="url(#clip0_114_276)">
<path d="M0.58079 25C0.44041 25 0.303843 24.9445 0.202563 24.8421C0.0690488 24.707 0.0175504 24.511 0.0677137 24.3277L1.69297 18.3928C0.681117 16.563 0.147632 14.4932 0.148394 12.392C0.151256 5.55897 5.71194 0 12.5444 0C15.8585 0.00133515 18.9724 1.29223 21.3129 3.63445C23.653 5.97687 24.9413 9.09061 24.9403 12.402C24.9373 19.2352 19.3766 24.7946 12.5444 24.7946C12.5444 24.7946 12.5393 24.7946 12.5391 24.7946C10.5434 24.7938 8.56495 24.3074 6.80332 23.3862L0.71564 24.9826C0.671008 24.9943 0.625613 25 0.58079 25Z" fill="#E5E5E5"/>
<path d="M0.58078 24.4681L2.26382 18.322C1.22565 16.5232 0.679581 14.4827 0.680344 12.3923C0.683014 5.85253 6.0049 0.531982 12.5444 0.531982C15.7179 0.533318 18.6966 1.76852 20.9366 4.01041C23.1764 6.25231 24.4095 9.23235 24.4083 12.4018C24.4055 18.9413 19.0828 24.2626 12.5444 24.2626C12.5441 24.2626 12.5446 24.2626 12.5444 24.2626H12.5393C10.5537 24.2619 8.6029 23.7639 6.87007 22.8188L0.58078 24.4681ZM7.16132 20.6717L7.52162 20.8851C9.03529 21.7835 10.7708 22.2586 12.5406 22.2595H12.5444C17.9792 22.2595 22.4028 17.8368 22.405 12.401C22.406 9.76679 21.3814 7.28972 19.5196 5.42643C17.6577 3.56314 15.1821 2.53641 12.5481 2.53527C7.10887 2.53527 2.68554 6.95746 2.68344 12.393C2.68268 14.2557 3.20377 16.0696 4.19101 17.6394L4.42561 18.0124L3.42921 21.6501L7.16132 20.6717Z" fill="white"/>
<path d="M0.993347 24.0539L2.61822 18.1204C1.61572 16.3839 1.08871 14.4138 1.08929 12.396C1.09177 6.08271 6.22959 0.946411 12.5423 0.946411C15.6063 0.947746 18.482 2.14022 20.644 4.30449C22.8065 6.46876 23.9967 9.34561 23.9956 12.405C23.9929 18.7185 18.8549 23.8554 12.5429 23.8554C12.5423 23.8554 12.5431 23.8554 12.5429 23.8554H12.5378C10.6211 23.8546 8.73756 23.3736 7.06482 22.4619L0.993347 24.0539Z" fill="#64B161"/>
<path d="M0.58078 24.4681L2.26382 18.322C1.22565 16.5232 0.679581 14.4827 0.680344 12.3923C0.683014 5.85253 6.0049 0.531982 12.5444 0.531982C15.7179 0.533318 18.6966 1.76852 20.9366 4.01041C23.1764 6.25231 24.4095 9.23235 24.4083 12.4018C24.4055 18.9413 19.0828 24.2626 12.5444 24.2626C12.5441 24.2626 12.5446 24.2626 12.5444 24.2626H12.5393C10.5537 24.2619 8.6029 23.7639 6.87007 22.8188L0.58078 24.4681ZM7.16132 20.6717L7.52162 20.8851C9.03529 21.7835 10.7708 22.2586 12.5406 22.2595H12.5444C17.9792 22.2595 22.4028 17.8368 22.405 12.401C22.406 9.76679 21.3814 7.28972 19.5196 5.42643C17.6577 3.56314 15.1821 2.53641 12.5481 2.53527C7.10887 2.53527 2.68554 6.95746 2.68344 12.393C2.68268 14.2557 3.20377 16.0696 4.19101 17.6394L4.42561 18.0124L3.42921 21.6501L7.16132 20.6717Z" fill="white"/>
<path fill-rule="evenodd" clip-rule="evenodd" d="M9.57926 7.43392C9.35725 6.9403 9.1234 6.93038 8.91207 6.92179C8.73926 6.91436 8.54147 6.91474 8.34406 6.91474C8.14646 6.91474 7.82526 6.98912 7.55366 7.28572C7.28186 7.58231 6.51587 8.29947 6.51587 9.75802C6.51587 11.2168 7.57826 12.6261 7.72646 12.8241C7.87466 13.0219 9.77724 16.1106 12.7903 17.2989C15.2944 18.2865 15.8039 18.0901 16.3475 18.0407C16.8911 17.9913 18.1013 17.3235 18.3483 16.6313C18.5955 15.9392 18.5955 15.346 18.5213 15.2218C18.4471 15.0984 18.2495 15.0242 17.9531 14.876C17.6567 14.7278 16.1993 14.0105 15.9275 13.9117C15.6557 13.8127 15.4581 13.7635 15.2605 14.0602C15.0627 14.3566 14.4951 15.0242 14.3221 15.2218C14.1491 15.42 13.9761 15.4448 13.6797 15.2964C13.3833 15.1478 12.4285 14.835 11.2959 13.8251C10.4147 13.0394 9.81959 12.069 9.64659 11.7722C9.47378 11.4758 9.64373 11.3293 9.77686 11.1674C10.0166 10.8757 10.4189 10.3514 10.5177 10.1538C10.6165 9.95581 10.5671 9.78282 10.4931 9.63442C10.4189 9.48622 9.84267 8.02024 9.57926 7.43392Z" fill="white"/>
</g>
<defs>
<clipPath id="clip0_114_276">
<rect width="25" height="25" fill="white"/>
</clipPath>
</defs>
</svg>
